<svg version="1.1" id="Layer_1" xmlns="http://www.w3.org/2000/svg" xmlns:xlink="http://www.w3.org/1999/xlink" x="0px" y="0px"
	 width="100%" viewBox="0 0 486 100" enable-background="new 0 0 486 100" xml:space="preserve">
<path fill="#FDFDFD" opacity="1.000000" stroke="none" 
	d="
M1.000000,35.000000 
	C1.000000,23.670946 1.000000,12.341893 1.000000,1.009630 
	C162.934540,1.006420 324.869080,1.006420 486.901794,1.006420 
	C486.901794,34.255028 486.901794,67.510437 486.901794,100.882927 
	C325.000061,100.882927 163.000046,100.882927 1.000000,100.882927 
	C1.000000,83.591026 1.000000,66.264168 1.319927,48.641472 
	C4.435527,58.165466 9.131307,66.510925 18.886890,71.393593 
	C20.957539,67.213760 20.127850,64.676010 16.980278,61.879169 
	C2.060700,48.622089 6.869288,22.935179 25.451784,16.389082 
	C25.963984,16.945997 26.555140,17.520189 27.068350,18.157179 
	C33.592278,26.254583 37.529564,26.461937 44.112038,18.622299 
	C46.211689,16.121649 47.935379,16.815332 50.139217,18.029137 
	C65.838844,26.676001 68.343506,50.090775 54.529015,61.890347 
	C50.980804,64.921036 50.839996,67.482559 52.887222,71.292099 
	C53.917816,70.746559 54.670383,70.429298 55.336872,69.983376 
	C67.697731,61.713345 73.237358,46.606983 69.153008,32.355022 
	C64.983192,17.804836 51.899361,7.621954 36.738384,7.127366 
	C22.241760,6.654451 8.067823,16.387848 3.135096,30.153826 
	C2.541140,31.811407 1.717295,33.386612 1.000000,35.000000 
M35.417229,25.494516 
	C35.417229,25.494516 35.115082,25.633133 34.281090,25.578323 
	C33.194050,27.183483 31.509619,28.655708 31.117996,30.415617 
	C28.772188,40.957409 26.846733,51.592167 24.547432,62.145012 
	C20.974678,78.542480 20.895638,78.525230 32.896137,90.144966 
	C33.015743,90.260773 33.148697,90.368980 33.243557,90.503250 
	C34.805813,92.714485 36.340580,92.478775 38.116249,90.650772 
	C41.476788,87.191185 45.126961,83.993889 48.274246,80.356598 
	C49.368301,79.092209 50.022564,76.713982 49.702744,75.073540 
	C46.681919,59.579098 43.320290,44.151211 40.281525,28.660076 
	C39.700630,25.698795 38.768246,24.406000 35.417229,25.494516 
M228.761276,37.147823 
	C232.830948,38.972221 233.993652,42.394478 233.979858,46.514370 
	C233.953888,54.267605 233.972351,62.020985 233.972351,69.684708 
	C238.745972,69.684708 242.957047,69.684708 247.315048,69.684708 
	C247.315048,60.400509 247.444397,51.434715 247.273422,42.474651 
	C247.140717,35.519585 244.521881,29.693571 237.776825,26.819519 
	C230.770218,23.834028 224.142334,24.755075 218.330688,29.980619 
	C218.057098,30.226625 217.566620,30.231398 217.136581,30.360704 
	C217.006897,28.755148 216.893372,27.349825 216.798080,26.170086 
	C212.090790,26.170086 207.868942,26.170086 203.651886,26.170086 
	C203.651886,40.940434 203.651886,55.336746 203.651886,69.766647 
	C208.184052,69.766647 212.434540,69.766647 217.002274,69.766647 
	C217.002274,61.914761 216.945801,54.298046 217.018143,46.682560 
	C217.090454,39.068291 220.148483,36.405758 228.761276,37.147823 
M175.244797,69.963394 
	C182.736298,67.832481 187.965134,63.446388 190.203918,55.442299 
	C189.008743,55.350716 188.360458,55.215591 187.726929,55.265968 
	C182.520691,55.679913 177.411926,54.261032 172.428497,58.566448 
	C167.833771,62.536057 161.325195,57.910336 161.064545,51.070587 
	C166.050385,51.070587 171.028595,51.070587 176.006821,51.070587 
	C180.948883,51.070587 185.890945,51.070587 190.752441,51.070587 
	C192.727661,37.037991 185.548080,27.055550 172.587265,25.249783 
	C159.626724,23.444052 148.897568,31.379757 147.164749,44.053268 
	C144.815094,61.238327 156.865417,72.741318 175.244797,69.963394 
M284.514221,51.070164 
	C290.606476,51.070164 296.698730,51.070164 302.721832,51.070164 
	C304.025146,36.371754 297.028717,26.893517 284.134460,25.220194 
	C271.536255,23.585295 260.748352,31.362936 259.064850,43.294430 
	C257.120026,57.078087 264.001221,67.933670 276.054474,70.096786 
	C288.696442,72.365562 299.393555,66.259415 301.612701,55.251701 
	C299.102539,55.251701 296.615173,55.004333 294.200928,55.318657 
	C291.590729,55.658489 289.061768,56.582890 286.473724,57.142887 
	C283.419983,57.803654 280.047913,59.384563 277.361633,58.626198 
	C275.047729,57.972954 273.502838,54.595703 271.617950,52.422829 
	C271.976746,51.971943 272.335541,51.521053 272.694366,51.070164 
	C276.302582,51.070164 279.910828,51.070164 284.514221,51.070164 
M90.715874,20.796751 
	C92.086693,23.452665 93.404884,26.137321 94.837265,28.759607 
	C101.749680,41.414318 109.226578,53.893368 106.879753,69.298958 
	C106.858894,69.435913 107.007980,69.598747 107.081108,69.739670 
	C111.338089,69.739670 115.595070,69.739670 120.825645,69.739670 
	C116.592010,54.583199 124.400528,42.867390 130.916351,30.768135 
	C133.198563,26.530308 135.376144,22.235340 137.548172,17.939501 
	C138.105011,16.838142 138.459000,15.634209 138.973511,14.303209 
	C133.831619,14.303209 129.177292,14.303209 124.254402,14.303209 
	C120.763344,21.814627 117.255424,29.362307 113.467155,37.513199 
	C110.123993,30.323355 107.219765,23.810265 104.032349,17.438847 
	C103.361977,16.098822 101.729134,14.497256 100.405647,14.365705 
	C96.362320,13.963808 92.253601,14.219754 87.542824,14.219754 
	C88.667679,16.644732 89.482452,18.401236 90.715874,20.796751 
M407.156281,67.517845 
	C417.696411,73.086365 429.135193,70.809509 435.053467,61.965031 
	C441.400909,52.479168 440.158173,37.457165 431.579407,31.047344 
	C427.858551,28.267218 422.620850,26.769808 417.900848,26.252350 
	C411.102936,25.507078 405.694580,29.235115 400.916199,35.824932 
	C400.916199,26.715879 400.916199,18.997164 400.916199,11.125682 
	C398.963715,11.231137 397.504456,11.309953 395.900208,11.396599 
	C395.900208,30.997097 395.900208,50.376049 395.900208,70.042534 
	C397.749237,69.953751 399.325592,69.878067 401.262054,69.785088 
	C401.262054,67.062637 401.262054,64.691071 401.262054,61.981091 
	C403.283997,63.915409 404.926147,65.486389 407.156281,67.517845 
M358.554718,26.032770 
	C345.673279,26.992887 337.934387,34.725174 337.278900,47.290401 
	C336.684326,58.687443 343.564606,68.103424 353.949768,70.105347 
	C367.480225,72.713577 378.507324,65.066399 380.343567,51.801628 
	C382.327240,37.471577 373.965149,27.163588 358.554718,26.032770 
M470.202728,70.647003 
	C478.958252,69.124008 483.442963,65.378456 483.867950,59.233959 
	C484.276611,53.325504 480.623535,49.664703 471.666443,47.013538 
	C471.348267,46.919357 471.001373,46.909897 470.694458,46.791759 
	C467.456329,45.545143 463.990356,44.677452 461.046814,42.930786 
	C457.132538,40.608135 456.950348,36.196983 460.140503,33.257622 
	C464.781616,28.981434 474.475525,30.395269 476.882507,36.132969 
	C478.295776,39.501862 480.129547,39.644188 483.381439,38.815395 
	C482.961334,37.156193 482.787506,35.512558 482.140564,34.083057 
	C479.562286,28.386328 474.579895,26.404438 468.801849,26.103783 
	C462.679626,25.785215 457.142914,27.259024 453.720123,32.899982 
	C450.905945,37.537876 452.168060,43.541389 456.785461,46.566654 
	C459.230377,48.168507 462.178223,49.045612 464.964508,50.072231 
	C468.228058,51.274700 471.739929,51.927914 474.823975,53.462624 
	C479.152954,55.616844 479.435608,60.631927 475.755615,63.730183 
	C471.136230,67.619293 461.143951,66.492691 458.436615,61.217880 
	C456.653961,57.744556 454.694763,57.244072 451.509186,58.290356 
	C453.276947,66.776154 457.888367,69.952324 470.202728,70.647003 
M316.957520,51.500004 
	C316.957489,60.309704 316.975067,69.119446 316.951721,77.929085 
	C316.934113,84.568733 316.216919,85.310127 309.639587,85.826088 
	C309.190247,85.861336 308.754791,86.072807 308.104492,86.263390 
	C308.172943,87.587540 308.237915,88.844833 308.300507,90.055893 
	C317.660492,90.987160 322.034363,88.727211 322.149231,81.978668 
	C322.459503,63.746155 322.255432,45.504887 322.255432,27.015350 
	C320.473724,27.015350 318.918335,27.015350 316.957520,27.015350 
	C316.957520,34.951817 316.957520,42.725918 316.957520,51.500004 
M316.900787,17.226913 
	C319.801361,19.335508 322.435547,18.911043 323.344299,15.472254 
	C323.696075,14.141086 322.130066,11.384363 320.737305,10.697635 
	C317.609680,9.155496 315.616486,12.023737 316.900787,17.226913 
z"/>
<path fill="#3EB8FF" opacity="1.000000" stroke="none" 
	d="
M1.000000,35.463184 
	C1.717295,33.386612 2.541140,31.811407 3.135096,30.153826 
	C8.067823,16.387848 22.241760,6.654451 36.738384,7.127366 
	C51.899361,7.621954 64.983192,17.804836 69.153008,32.355022 
	C73.237358,46.606983 67.697731,61.713345 55.336872,69.983376 
	C54.670383,70.429298 53.917816,70.746559 52.887222,71.292099 
	C50.839996,67.482559 50.980804,64.921036 54.529015,61.890347 
	C68.343506,50.090775 65.838844,26.676001 50.139217,18.029137 
	C47.935379,16.815332 46.211689,16.121649 44.112038,18.622299 
	C37.529564,26.461937 33.592278,26.254583 27.068350,18.157179 
	C26.555140,17.520189 25.963984,16.945997 25.451784,16.389082 
	C6.869288,22.935179 2.060700,48.622089 16.980278,61.879169 
	C20.127850,64.676010 20.957539,67.213760 18.886890,71.393593 
	C9.131307,66.510925 4.435527,58.165466 1.319927,48.172813 
	C1.000000,43.975456 1.000000,39.950912 1.000000,35.463184 
z"/>
<path fill="#050505" opacity="1.000000" stroke="none" 
	d="
M228.356415,37.057804 
	C220.148483,36.405758 217.090454,39.068291 217.018143,46.682560 
	C216.945801,54.298046 217.002274,61.914761 217.002274,69.766647 
	C212.434540,69.766647 208.184052,69.766647 203.651886,69.766647 
	C203.651886,55.336746 203.651886,40.940434 203.651886,26.170086 
	C207.868942,26.170086 212.090790,26.170086 216.798080,26.170086 
	C216.893372,27.349825 217.006897,28.755148 217.136581,30.360704 
	C217.566620,30.231398 218.057098,30.226625 218.330688,29.980619 
	C224.142334,24.755075 230.770218,23.834028 237.776825,26.819519 
	C244.521881,29.693571 247.140717,35.519585 247.273422,42.474651 
	C247.444397,51.434715 247.315048,60.400509 247.315048,69.684708 
	C242.957047,69.684708 238.745972,69.684708 233.972351,69.684708 
	C233.972351,62.020985 233.953888,54.267605 233.979858,46.514370 
	C233.993652,42.394478 232.830948,38.972221 228.356415,37.057804 
z"/>
<path fill="#060606" opacity="1.000000" stroke="none" 
	d="
M174.841034,70.025208 
	C156.865417,72.741318 144.815094,61.238327 147.164749,44.053268 
	C148.897568,31.379757 159.626724,23.444052 172.587265,25.249783 
	C185.548080,27.055550 192.727661,37.037991 190.752441,51.070587 
	C185.890945,51.070587 180.948883,51.070587 176.006821,51.070587 
	C171.028595,51.070587 166.050385,51.070587 161.064545,51.070587 
	C161.325195,57.910336 167.833771,62.536057 172.428497,58.566448 
	C177.411926,54.261032 182.520691,55.679913 187.726929,55.265968 
	C188.360458,55.215591 189.008743,55.350716 190.203918,55.442299 
	C187.965134,63.446388 182.736298,67.832481 174.841034,70.025208 
M175.926346,38.852127 
	C172.952179,35.777874 169.265457,34.849964 165.616806,36.844936 
	C163.436142,38.037247 161.984650,40.563164 160.205399,42.489616 
	C160.582382,42.808167 160.959366,43.126713 161.336349,43.445259 
	C166.543884,43.445259 171.751419,43.445259 177.517044,43.445259 
	C177.069031,41.886871 176.730179,40.708195 175.926346,38.852127 
z"/>
<path fill="#060606" opacity="1.000000" stroke="none" 
	d="
M284.016663,51.070164 
	C279.910828,51.070164 276.302582,51.070164 272.694366,51.070164 
	C272.335541,51.521053 271.976746,51.971943 271.617950,52.422829 
	C273.502838,54.595703 275.047729,57.972954 277.361633,58.626198 
	C280.047913,59.384563 283.419983,57.803654 286.473724,57.142887 
	C289.061768,56.582890 291.590729,55.658489 294.200928,55.318657 
	C296.615173,55.004333 299.102539,55.251701 301.612701,55.251701 
	C299.393555,66.259415 288.696442,72.365562 276.054474,70.096786 
	C264.001221,67.933670 257.120026,57.078087 259.064850,43.294430 
	C260.748352,31.362936 271.536255,23.585295 284.134460,25.220194 
	C297.028717,26.893517 304.025146,36.371754 302.721832,51.070164 
	C296.698730,51.070164 290.606476,51.070164 284.016663,51.070164 
M275.505737,37.747864 
	C274.384674,39.398144 273.263641,41.048428 271.660614,43.408222 
	C278.183167,43.408222 283.504944,43.408222 288.857300,43.408222 
	C288.102722,36.565533 283.405426,34.400322 275.505737,37.747864 
z"/>
<path fill="#050505" opacity="1.000000" stroke="none" 
	d="
M90.506546,20.477245 
	C89.482452,18.401236 88.667679,16.644732 87.542824,14.219754 
	C92.253601,14.219754 96.362320,13.963808 100.405647,14.365705 
	C101.729134,14.497256 103.361977,16.098822 104.032349,17.438847 
	C107.219765,23.810265 110.123993,30.323355 113.467155,37.513199 
	C117.255424,29.362307 120.763344,21.814627 124.254402,14.303209 
	C129.177292,14.303209 133.831619,14.303209 138.973511,14.303209 
	C138.459000,15.634209 138.105011,16.838142 137.548172,17.939501 
	C135.376144,22.235340 133.198563,26.530308 130.916351,30.768135 
	C124.400528,42.867390 116.592010,54.583199 120.825645,69.739670 
	C115.595070,69.739670 111.338089,69.739670 107.079407,69.744583 
	C107.007980,69.598747 106.858894,69.435913 106.879753,69.298958 
	C109.226578,53.893368 101.749680,41.414318 94.837265,28.759607 
	C93.404884,26.137321 92.086693,23.452665 90.506546,20.477245 
z"/>
<path fill="#3BB7FF" opacity="1.000000" stroke="none" 
	d="
M35.749229,25.477739 
	C38.768246,24.406000 39.700630,25.698795 40.281525,28.660076 
	C43.320290,44.151211 46.681919,59.579098 49.702744,75.073540 
	C50.022564,76.713982 49.368301,79.092209 48.274246,80.356598 
	C45.126961,83.993889 41.476788,87.191185 38.116249,90.650772 
	C36.340580,92.478775 34.805813,92.714485 33.243557,90.503250 
	C33.148697,90.368980 33.015743,90.260773 32.896137,90.144966 
	C20.895638,78.525230 20.974678,78.542480 24.547432,62.145012 
	C26.846733,51.592167 28.772188,40.957409 31.117996,30.415617 
	C31.509619,28.655708 33.194050,27.183483 34.656307,26.111118 
	C35.031525,41.660332 35.031525,56.676750 35.031525,71.693169 
	C35.270760,71.690041 35.509995,71.686913 35.749229,71.683784 
	C35.749229,56.281773 35.749229,40.879757 35.749229,25.477739 
z"/>
<path fill="#090909" opacity="1.000000" stroke="none" 
	d="
M406.862305,67.287605 
	C404.926147,65.486389 403.283997,63.915409 401.262054,61.981091 
	C401.262054,64.691071 401.262054,67.062637 401.262054,69.785088 
	C399.325592,69.878067 397.749237,69.953751 395.900208,70.042534 
	C395.900208,50.376049 395.900208,30.997097 395.900208,11.396599 
	C397.504456,11.309953 398.963715,11.231137 400.916199,11.125682 
	C400.916199,18.997164 400.916199,26.715879 400.916199,35.824932 
	C405.694580,29.235115 411.102936,25.507078 417.900848,26.252350 
	C422.620850,26.769808 427.858551,28.267218 431.579407,31.047344 
	C440.158173,37.457165 441.400909,52.479168 435.053467,61.965031 
	C429.135193,70.809509 417.696411,73.086365 406.862305,67.287605 
M407.242767,62.385979 
	C414.291718,66.808899 421.191925,66.945396 426.775116,62.772354 
	C432.314362,58.632164 434.731750,50.001770 432.492828,42.359127 
	C430.395508,35.199745 424.823273,30.996666 417.377350,30.957664 
	C410.050934,30.919287 404.062286,35.148750 402.042664,42.127411 
	C399.904205,49.516907 400.979431,56.283260 407.242767,62.385979 
z"/>
<path fill="#0C0C0C" opacity="1.000000" stroke="none" 
	d="
M358.997009,26.032768 
	C373.965149,27.163588 382.327240,37.471577 380.343567,51.801628 
	C378.507324,65.066399 367.480225,72.713577 353.949768,70.105347 
	C343.564606,68.103424 336.684326,58.687443 337.278900,47.290401 
	C337.934387,34.725174 345.673279,26.992887 358.997009,26.032768 
M362.531921,65.302284 
	C370.536530,62.889702 374.571960,57.679771 374.903351,49.330067 
	C375.233887,41.002209 371.511444,34.538910 364.938049,32.027180 
	C358.597198,29.604307 351.287048,31.223755 347.094543,35.980106 
	C342.493774,41.199677 341.547607,50.890564 344.984619,57.589642 
	C348.087708,63.637955 353.707458,66.294952 362.531921,65.302284 
z"/>
<path fill="#0D0D0D" opacity="1.000000" stroke="none" 
	d="
M469.785645,70.673569 
	C457.888367,69.952324 453.276947,66.776154 451.509186,58.290356 
	C454.694763,57.244072 456.653961,57.744556 458.436615,61.217880 
	C461.143951,66.492691 471.136230,67.619293 475.755615,63.730183 
	C479.435608,60.631927 479.152954,55.616844 474.823975,53.462624 
	C471.739929,51.927914 468.228058,51.274700 464.964508,50.072231 
	C462.178223,49.045612 459.230377,48.168507 456.785461,46.566654 
	C452.168060,43.541389 450.905945,37.537876 453.720123,32.899982 
	C457.142914,27.259024 462.679626,25.785215 468.801849,26.103783 
	C474.579895,26.404438 479.562286,28.386328 482.140564,34.083057 
	C482.787506,35.512558 482.961334,37.156193 483.381439,38.815395 
	C480.129547,39.644188 478.295776,39.501862 476.882507,36.132969 
	C474.475525,30.395269 464.781616,28.981434 460.140503,33.257622 
	C456.950348,36.196983 457.132538,40.608135 461.046814,42.930786 
	C463.990356,44.677452 467.456329,45.545143 470.694458,46.791759 
	C471.001373,46.909897 471.348267,46.919357 471.666443,47.013538 
	C480.623535,49.664703 484.276611,53.325504 483.867950,59.233959 
	C483.442963,65.378456 478.958252,69.124008 469.785645,70.673569 
z"/>
<path fill="#020202" opacity="1.000000" stroke="none" 
	d="
M316.957520,51.000011 
	C316.957520,42.725918 316.957520,34.951817 316.957520,27.015350 
	C318.918335,27.015350 320.473724,27.015350 322.255432,27.015350 
	C322.255432,45.504887 322.459503,63.746155 322.149231,81.978668 
	C322.034363,88.727211 317.660492,90.987160 308.300507,90.055893 
	C308.237915,88.844833 308.172943,87.587540 308.104492,86.263390 
	C308.754791,86.072807 309.190247,85.861336 309.639587,85.826088 
	C316.216919,85.310127 316.934113,84.568733 316.951721,77.929085 
	C316.975067,69.119446 316.957489,60.309704 316.957520,51.000011 
z"/>
<path fill="#111111" opacity="1.000000" stroke="none" 
	d="
M316.634613,16.952803 
	C315.616486,12.023737 317.609680,9.155496 320.737305,10.697635 
	C322.130066,11.384363 323.696075,14.141086 323.344299,15.472254 
	C322.435547,18.911043 319.801361,19.335508 316.634613,16.952803 
z"/>
<path fill="#56C1FF" opacity="1.000000" stroke="none" 
	d="
M35.583229,25.486128 
	C35.749229,40.879757 35.749229,56.281773 35.749229,71.683784 
	C35.509995,71.686913 35.270760,71.690041 35.031525,71.693169 
	C35.031525,56.676750 35.031525,41.660332 35.073303,26.138523 
	C35.115082,25.633133 35.417229,25.494516 35.583229,25.486128 
z"/>
<path fill="#E9E9E9" opacity="1.000000" stroke="none" 
	d="
M176.158844,39.190826 
	C176.730179,40.708195 177.069031,41.886871 177.517044,43.445259 
	C171.751419,43.445259 166.543884,43.445259 161.336349,43.445259 
	C160.959366,43.126713 160.582382,42.808167 160.205399,42.489616 
	C161.984650,40.563164 163.436142,38.037247 165.616806,36.844936 
	C169.265457,34.849964 172.952179,35.777874 176.158844,39.190826 
z"/>
<path fill="#EBEBEB" opacity="1.000000" stroke="none" 
	d="
M275.797180,37.499729 
	C283.405426,34.400322 288.102722,36.565533 288.857300,43.408222 
	C283.504944,43.408222 278.183167,43.408222 271.660614,43.408222 
	C273.263641,41.048428 274.384674,39.398144 275.797180,37.499729 
z"/>
<path fill="#FBFBFB" opacity="1.000000" stroke="none" 
	d="
M406.957123,62.144730 
	C400.979431,56.283260 399.904205,49.516907 402.042664,42.127411 
	C404.062286,35.148750 410.050934,30.919287 417.377350,30.957664 
	C424.823273,30.996666 430.395508,35.199745 432.492828,42.359127 
	C434.731750,50.001770 432.314362,58.632164 426.775116,62.772354 
	C421.191925,66.945396 414.291718,66.808899 406.957123,62.144730 
z"/>
<path fill="#FBFBFB" opacity="1.000000" stroke="none" 
	d="
M362.143677,65.410568 
	C353.707458,66.294952 348.087708,63.637955 344.984619,57.589642 
	C341.547607,50.890564 342.493774,41.199677 347.094543,35.980106 
	C351.287048,31.223755 358.597198,29.604307 364.938049,32.027180 
	C371.511444,34.538910 375.233887,41.002209 374.903351,49.330067 
	C374.571960,57.679771 370.536530,62.889702 362.143677,65.410568 
z"/>
</svg>